<svg xmlns="http://www.w3.org/2000/svg" style="display: none;">
  <symbol id="icon-instagram" viewBox="0 0 24 24">
    <path d="M12 2.2c3.2 0 3.6 0 4.8.1 1.2.1 1.8.3 2.2.5.6.3 1.1.8 1.4 1.4.2.4.4 1 .5 2.2.1 1.2.1 1.6.1 4.8s0 3.6-.1 4.8c-.1 1.2-.3 1.8-.5 2.2-.3.6-.8 1.1-1.4 1.4-.4.2-1 .4-2.2.5-1.2.1-1.6.1-4.8.1s-3.6 0-4.8-.1c-1.2-.1-1.8-.3-2.2-.5a3.3 3.3 0 0 1-1.4-1.4c-.2-.4-.4-1-.5-2.2-.1-1.2-.1-1.6-.1-4.8s0-3.6.1-4.8c.1-1.2.3-1.8.5-2.2a3.3 3.3 0 0 1 1.4-1.4c.4-.2 1-.4 2.2-.5C8.4 2.2 8.8 2.2 12 2.2zm0 1.8c-3.1 0-3.4 0-4.7.1-1 .1-1.5.2-1.9.4-.5.2-.9.5-1.1 1-.2.4-.3.9-.4 1.9-.1 1.3-.1 1.6-.1 4.7s0 3.4.1 4.7c.1 1 .2 1.5.4 1.9.2.5.5.9 1 .1.4.2.9.3 1.9.4 1.3.1 1.6.1 4.7.1s3.4 0 4.7-.1c1-.1 1.5-.2 1.9-.4.5-.2.9-.5 1.1-1 .2-.4.3-.9.4-1.9.1-1.3.1-1.6.1-4.7s0-3.4-.1-4.7c-.1-1-.2-1.5-.4-1.9a2.2 2.2 0 0 0-1-1.1c-.4-.2-.9-.3-1.9-.4-1.3-.1-1.6-.1-4.7-.1zm0 3.3a5.4 5.4 0 1 1 0 10.8 5.4 5.4 0 0 1 0-10.8zm0 1.8a3.6 3.6 0 1 0 0 7.2 3.6 3.6 0 0 0 0-7.2zm5.4-.9a1.3 1.3 0 1 1-2.6 0 1.3 1.3 0 0 1 2.6 0z"/>
  </symbol>
  <symbol id="icon-twitter" viewBox="0 0 24 24">
    <path d="M22.46 6c-.77.34-1.6.57-2.46.67a4.3 4.3 0 0 0 1.9-2.38 8.6 8.6 0 0 1-2.7 1.03A4.3 4.3 0 0 0 16 4a4.3 4.3 0 0 0-4.2 5.3A12.2 12.2 0 0 1 3 5.2a4.3 4.3 0 0 0 1.3 5.7c-.66 0-1.3-.2-1.9-.5v.05c0 2 1.4 3.7 3.2 4.1-.6.2-1.2.2-1.8.1a4.3 4.3 0 0 0 4 3A8.6 8.6 0 0 1 2 19a12.1 12.1 0 0 0 6.6 1.9c7.9 0 12.3-6.5 12.3-12.2v-.6A8.7 8.7 0 0 0 24 5.5a8.5 8.5 0 0 1-2.5.7 4.3 4.3 0 0 0 1.9-2.3z"/>
  </symbol>
  <symbol id="icon-facebook" viewBox="0 0 24 24">
    <path d="M22 12a10 10 0 1 0-11.5 9.9v-7H8v-3h2.5v-2.3c0-2.4 1.5-3.8 3.7-3.8 1.1 0 2.2.2 2.2.2v2.4h-1.2c-1.2 0-1.5.7-1.5 1.4V12H18l-.5 3h-2.5v7A10 10 0 0 0 22 12z"/>
  </symbol>
  <symbol id="icon-linkedin" viewBox="0 0 24 24">
    <path d="M20.45 20.45h-3.56v-5.59c0-1.33-.02-3.05-1.86-3.05-1.87 0-2.15 1.45-2.15 2.95v5.69H9.32V9h3.41v1.56h.05c.48-.91 1.66-1.86 3.42-1.86 3.66 0 4.34 2.41 4.34 5.54v6.21zM5.34 7.43a2.06 2.06 0 1 1 0-4.12 2.06 2.06 0 0 1 0 4.12zm1.78 13.02H3.56V9h3.56v11.45zM22.22 0H1.78C.8 0 0 .78 0 1.75v20.5C0 23.22.8 24 1.78 24h20.44c.98 0 1.78-.78 1.78-1.75V1.75C24 .78 23.2 0 22.22 0z"/>
  </symbol>
</svg>